<?xml version="1.0" encoding="UTF-8" standalone="no"?>
<!DOCTYPE svg PUBLIC "-//W3C//DTD SVG 1.1//EN"
 "http://www.w3.org/Graphics/SVG/1.1/DTD/svg11.dtd">
<!-- Generated by graphviz version 12.2.1 (20241206.2353)
 -->
<!-- Pages: 1 -->
<svg width="201pt" height="91pt"
 viewBox="0.00 0.00 201.37 90.76" xmlns="http://www.w3.org/2000/svg" xmlns:xlink="http://www.w3.org/1999/xlink">
<g id="graph0" class="graph" transform="scale(1 1) rotate(0) translate(4 86.76)">
<polygon fill="white" stroke="none" points="-4,4 -4,-86.76 197.37,-86.76 197.37,4 -4,4"/>
<!-- qi -->
<g id="node1" class="node">
<title>qi</title>
<ellipse fill="black" stroke="black" cx="1.8" cy="-24.13" rx="1.8" ry="1.8"/>
</g>
<!-- q0 -->
<g id="node2" class="node">
<title>q0</title>
<ellipse fill="none" stroke="black" cx="82.98" cy="-24.13" rx="20.13" ry="20.13"/>
<text text-anchor="middle" x="82.98" y="-19.08" font-family="Times New Roman,serif" font-size="14.00">q0</text>
</g>
<!-- qi&#45;&gt;q0 -->
<g id="edge1" class="edge">
<title>qi&#45;&gt;q0</title>
<path fill="none" stroke="black" d="M3.92,-24.13C9.14,-24.13 31.69,-24.13 51.22,-24.13"/>
<polygon fill="black" stroke="black" points="51,-27.63 61,-24.13 51,-20.63 51,-27.63"/>
<text text-anchor="middle" x="33.23" y="-27.33" font-family="Times New Roman,serif" font-size="14.00">start</text>
</g>
<!-- q0&#45;&gt;q0 -->
<g id="edge2" class="edge">
<title>q0&#45;&gt;q0</title>
<path fill="none" stroke="black" d="M75.54,-43.36C74.4,-53.3 76.88,-62.26 82.98,-62.26 86.51,-62.26 88.83,-59.27 89.94,-54.82"/>
<polygon fill="black" stroke="black" points="93.43,-55.01 90.36,-44.87 86.44,-54.71 93.43,-55.01"/>
<text text-anchor="middle" x="82.98" y="-65.46" font-family="Times New Roman,serif" font-size="14.00">b</text>
</g>
<!-- q1 -->
<g id="node3" class="node">
<title>q1</title>
<ellipse fill="none" stroke="green" cx="169.24" cy="-24.13" rx="20.13" ry="20.13"/>
<ellipse fill="none" stroke="green" cx="169.24" cy="-24.13" rx="24.13" ry="24.13"/>
<text text-anchor="middle" x="169.24" y="-19.08" font-family="Times New Roman,serif" font-size="14.00">q1</text>
</g>
<!-- q0&#45;&gt;q1 -->
<g id="edge3" class="edge">
<title>q0&#45;&gt;q1</title>
<path fill="none" stroke="black" d="M103.52,-24.13C112.5,-24.13 123.41,-24.13 133.7,-24.13"/>
<polygon fill="black" stroke="black" points="133.4,-27.63 143.4,-24.13 133.4,-20.63 133.4,-27.63"/>
<text text-anchor="middle" x="124.11" y="-27.33" font-family="Times New Roman,serif" font-size="14.00">a</text>
</g>
<!-- q1&#45;&gt;q1 -->
<g id="edge4" class="edge">
<title>q1&#45;&gt;q1</title>
<path fill="none" stroke="black" d="M160.91,-47.1C160.12,-57.38 162.9,-66.26 169.24,-66.26 173.01,-66.26 175.52,-63.13 176.77,-58.43"/>
<polygon fill="black" stroke="black" points="180.25,-58.83 177.47,-48.61 173.27,-58.34 180.25,-58.83"/>
<text text-anchor="middle" x="169.24" y="-69.46" font-family="Times New Roman,serif" font-size="14.00">a+b</text>
</g>
</g>
</svg>
